<?xml version="1.0" encoding="UTF-8"?>
<svg id="select_card" xmlns="http://www.w3.org/2000/svg" viewBox="0 0 1425.93 303.29">
  <defs>
    <style>
      .cls-1 {
        fill: #e6e6e6;
      }

      .cls-2 {
        stroke: #ccc;
      }

      .cls-2, .cls-3, .cls-4, .cls-5, .cls-6, .cls-7, .cls-8 {
        stroke-miterlimit: 10;
      }

      .cls-2, .cls-4 {
        fill: none;
      }

      .cls-3, .cls-9, .cls-6, .cls-7, .cls-8 {
        fill: #666;
      }

      .cls-3, .cls-4 {
        stroke: #e6e6e6;
      }

      .cls-10, .cls-5 {
        fill: #4d4d4d;
      }

      .cls-11 {
        fill: blue;
      }

      .cls-12 {
        font-family: KozGoPr6N-Regular-83pv-RKSJ-H, 'Kozuka Gothic Pr6N';
        font-size: 26px;
      }

      .cls-5, .cls-6 {
        stroke-width: 5px;
      }

      .cls-5, .cls-6, .cls-7, .cls-8 {
        stroke: #4d4d4d;
      }

      .cls-13 {
        fill: #b3b3b3;
      }

      .cls-7 {
        stroke-width: 7px;
      }

      .cls-8 {
        stroke-width: 4px;
      }
    </style>
  </defs>
  <g id="_背景" data-name="背景">
    <rect class="cls-13" y="0" width="1425.93" height="303.28"/>
  </g>
  <g id="void">
    <g>
      <g>
        <circle class="cls-10" cx="1007.34" cy="116.19" r="4.24"/>
        <circle class="cls-10" cx="925.77" cy="197.77" r="4.24"/>
        <circle class="cls-10" cx="1088.92" cy="197.77" r="4.24"/>
        <circle class="cls-10" cx="966.56" cy="127.12" r="4.24"/>
        <circle class="cls-10" cx="1048.13" cy="268.41" r="4.24"/>
        <circle class="cls-10" cx="936.7" cy="238.56" r="4.24"/>
        <circle class="cls-10" cx="1077.99" cy="156.98" r="4.24"/>
        <circle class="cls-10" cx="936.7" cy="156.98" r="4.24"/>
        <circle class="cls-10" cx="1077.99" cy="238.56" r="4.24"/>
        <circle class="cls-10" cx="966.56" cy="268.41" r="4.24"/>
        <circle class="cls-10" cx="1048.13" cy="127.12" r="4.24"/>
      </g>
      <g>
        <circle class="cls-6" cx="1007.34" cy="197.77" r="72.72"/>
        <rect class="cls-5" x="1005.2" y="125.98" width="4.29" height="14.47"/>
      </g>
      <circle class="cls-2" cx="1007.34" cy="197.77" r="71.18"/>
      <path class="cls-10" d="M928.31,253.48h7.67v18.7h11.97v6.11h-19.63v-24.81Z"/>
      <path class="cls-10" d="M1068.87,278.29v-24.81h12.78c2.37,0,4.18.2,5.43.61,1.25.41,2.26,1.16,3.03,2.26.77,1.1,1.15,2.44,1.15,4.02,0,1.38-.29,2.56-.88,3.56-.59,1-1.39,1.81-2.42,2.43-.65.39-1.55.72-2.69.98.91.3,1.58.61,2,.91.28.2.69.64,1.23,1.3.54.67.89,1.18,1.07,1.54l3.71,7.19h-8.66l-4.1-7.58c-.52-.98-.98-1.62-1.39-1.91-.55-.38-1.18-.58-1.88-.58h-.68v10.07h-7.7ZM1076.57,263.53h3.23c.35,0,1.03-.11,2.03-.34.51-.1.92-.36,1.24-.78.32-.42.48-.9.48-1.44,0-.8-.25-1.42-.76-1.84s-1.46-.64-2.86-.64h-3.37v5.04Z"/>
    </g>
    <g>
      <g>
        <g>
          <circle class="cls-8" cx="1258.8" cy="120.24" r="58.56"/>
          <circle class="cls-2" cx="1258.8" cy="120.24" r="56.46"/>
        </g>
        <path class="cls-1" d="M1277.73,134.68h-9.08v-23.41h-5.05v23.41h-9.09v-23.41h-5.55v23.41h-9.09v-29.99h37.86v29.99Z"/>
      </g>
      <g>
        <g>
          <circle class="cls-8" cx="1199.07" cy="68.78" r="40.8"/>
          <circle class="cls-2" cx="1199.07" cy="68.78" r="39.34"/>
        </g>
        <path class="cls-1" d="M1193.75,63.02h16.63v20.44h-22.62v-6.69h16.63v-7.06h-16.63v-16.72h22.62v6.69h-16.63v3.34Z"/>
      </g>
    </g>
    <g>
      <g>
        <path class="cls-7" d="M1365.68,203.94h-210.11c-13.43,0-24.32,8.6-24.32,19.22v20.82h0v55.8h258.75v-76.63c0-10.61-10.89-19.22-24.32-19.22Z"/>
        <path class="cls-3" d="M1364.62,204.38h-207.98c-13.29,0-24.07,8.83-24.07,19.73v21.38h0v57.29h256.12v-78.67c0-10.9-10.78-19.73-24.07-19.73Z"/>
        <rect class="cls-9" x="1133.11" y="295.57" width="255.02" height="7.71"/>
      </g>
      <line class="cls-4" x1="1259.29" y1="204.18" x2="1259.31" y2="303.29"/>
      <path class="cls-1" d="M1197.44,256.22h13.19v2.79h-13.19v13.19h-2.89v-13.19h-13.19v-2.79h13.19v-13.14h2.89v13.14Z"/>
      <path class="cls-1" d="M1309.41,250.15h34.45l-17.23,19.43-17.22-19.43Z"/>
    </g>
  </g>
  <g id="image_holder">
    <rect class="cls-11" width="303.28" height="303.28"/>
  </g>
  <text id="title" class="cls-12" transform="translate(328.44 51.68)"><tspan x="0" y="0">SONG NAME</tspan></text>
  <text id="artist" class="cls-12" transform="translate(329.79 145.21)"><tspan x="0" y="0">ARTIST</tspan></text>
  <text id="score" class="cls-12" transform="translate(329.79 238.4)"><tspan x="0" y="0">HIGH SCORE</tspan></text>
</svg>
